<svg width="249" height="37" viewBox="0 0 249 37" fill="none" xmlns="http://www.w3.org/2000/svg">
<path d="M41.0102 30.669C38.4249 30.669 36.5912 30.2361 35.515 29.3643C34.4387 28.4925 33.9036 27.1337 33.9036 25.2819V22.871C33.9036 20.9891 34.4568 19.6484 35.557 18.8487C36.6573 18.0431 38.449 17.6462 40.9261 17.6462H48.5257C49.6139 17.6462 50.4436 17.7364 51.0148 17.9108C51.586 18.0851 52.079 18.2836 52.4878 18.506V15.9327C52.4878 14.8986 52.1752 14.2192 51.5499 13.8885C50.9246 13.5639 49.8604 13.3955 48.3633 13.3955H35.6172L36.1462 8.6157H49.0548C50.8525 8.6157 52.3255 8.80208 53.4678 9.16883C54.6102 9.53559 55.506 10.0346 56.1433 10.6599C56.7806 11.2852 57.2256 12.0247 57.4721 12.8664C57.7186 13.7082 57.8388 14.61 57.8388 15.56V30.675C57.0512 30.675 56.2876 30.4225 55.5541 29.9175C54.8206 29.4124 54.3396 28.5106 54.1232 27.1999C53.7985 28.21 53.1672 29.0397 52.2473 29.689C51.3214 30.3443 50.0408 30.669 48.4054 30.669H41.0102ZM52.4878 21.6385C52.0249 21.4461 51.4958 21.2957 50.8946 21.1875C50.2933 21.0793 49.4937 21.0252 48.4836 21.0252H41.8279C40.9561 21.0252 40.3308 21.1935 39.9521 21.5362C39.5733 21.8789 39.3809 22.5223 39.3809 23.4782C39.3809 24.4041 39.5733 25.0475 39.9521 25.3962C40.3308 25.7509 40.9441 25.9253 41.7918 25.9253H48.4475C49.4275 25.9253 50.3053 25.7629 51.0809 25.4322C51.8565 25.1016 52.3255 24.4823 52.4878 23.5564V21.6385ZM70.2964 30.669C67.6269 30.669 65.5527 30.0618 64.0676 28.8533C62.5826 27.6448 61.843 25.6607 61.843 22.9131V16.3776C61.843 13.63 62.5826 11.6459 64.0676 10.4314C65.5527 9.22294 67.6269 8.6157 70.2964 8.6157H79.363C80.2589 8.6157 81.0465 8.73595 81.7139 8.98245C82.3812 9.22896 82.9464 9.52957 83.4093 9.87829C83.8723 10.233 84.239 10.6178 84.5096 11.0447C84.7802 11.4655 84.9846 11.8383 85.1229 12.169L82.1407 15.2714C81.8942 14.7543 81.5575 14.3034 81.1186 13.9246C80.6857 13.5458 80.0003 13.3534 79.0744 13.3534H70.2904C69.3344 13.3534 68.5949 13.5999 68.0658 14.0869C67.5367 14.5799 67.2722 15.3375 67.2722 16.3716V22.907C67.2722 23.9412 67.5367 24.7047 68.0658 25.1917C68.5949 25.6848 69.3404 25.9253 70.2904 25.9253H79.2789C80.2048 25.9253 80.8902 25.7329 81.3411 25.3541C81.792 24.9753 82.1227 24.5364 82.3391 24.0494L85.3634 27.1157C85.2251 27.4404 85.0146 27.8191 84.7321 28.24C84.4435 28.6609 84.0707 29.0517 83.6077 29.4064C83.1448 29.7611 82.5796 30.0617 81.9123 30.3022C81.2449 30.5487 80.4633 30.669 79.5614 30.669H70.2964V30.669ZM106.244 30.669L98.4041 22.8289L93.9911 26.8752V30.675H88.5559V1.83978L93.9911 0V20.7065L106.611 8.6157H113.351L101.753 19.5642L113.273 30.675H106.244V30.669ZM114.613 30.669C114.752 29.8814 114.878 29.0877 115.004 28.3001C115.124 27.5125 115.257 26.7189 115.395 25.9313H130.672C131.436 25.9313 132.001 25.781 132.368 25.4803C132.735 25.1797 132.921 24.5544 132.921 23.5985C132.921 22.6485 132.735 22.0172 132.368 21.7226C132.001 21.422 131.436 21.2717 130.672 21.2717H122.586C120.055 21.2717 118.179 20.8929 116.97 20.1293C115.756 19.3658 115.155 18.0431 115.155 16.1672V13.7983C115.155 12.7883 115.311 11.9465 115.624 11.2671C115.936 10.5878 116.405 10.0587 117.03 9.67387C117.656 9.29509 118.461 9.01852 119.441 8.85619C120.421 8.69386 121.564 8.60968 122.874 8.60968H137.905L137.13 13.3895H123.121C122.357 13.3895 121.792 13.5398 121.425 13.8404C121.059 14.1411 120.872 14.7543 120.872 15.6802C120.872 16.5761 121.059 17.1833 121.425 17.4959C121.792 17.8086 122.357 17.9649 123.121 17.9649H131.208C133.715 17.9649 135.579 18.3557 136.805 19.1313C138.032 19.9069 138.645 21.2236 138.645 23.0754V25.5284C138.645 26.5626 138.488 27.4043 138.176 28.0596C137.863 28.715 137.394 29.2381 136.769 29.6349C136.144 30.0317 135.338 30.3022 134.358 30.4526C133.378 30.6029 132.236 30.675 130.925 30.675H114.613V30.669ZM152.521 30.669C151.217 30.669 150.158 30.4285 149.353 29.9535C148.547 29.4785 147.85 28.6549 147.248 27.4824V37H141.813V8.60968H147.044V11.7962C147.645 10.6238 148.343 9.80013 149.148 9.32515C149.954 8.85018 151.006 8.60968 152.311 8.60968H157.578C159.159 8.60968 160.494 8.79005 161.582 9.13877C162.67 9.4935 163.548 10.0346 164.215 10.7741C164.883 11.5076 165.358 12.4275 165.646 13.5338C165.935 14.6341 166.073 15.9387 166.073 17.4358V21.8489C166.073 23.346 165.929 24.6446 165.646 25.7509C165.358 26.8512 164.883 27.771 164.215 28.5106C163.548 29.2441 162.67 29.7912 161.582 30.1459C160.494 30.5007 159.159 30.675 157.578 30.675H152.521V30.669ZM160.608 17.5982C160.608 16.1251 160.416 15.0549 160.037 14.3695C159.658 13.6901 158.84 13.3474 157.584 13.3474H150.477C149.521 13.3474 148.794 13.5098 148.295 13.8404C147.79 14.1651 147.441 14.7122 147.254 15.4758V23.8089C147.447 24.5725 147.79 25.1136 148.295 25.4443C148.8 25.7689 149.527 25.9373 150.477 25.9373H157.584C158.834 25.9373 159.652 25.5946 160.037 24.9152C160.416 24.2358 160.608 23.1596 160.608 21.6865V17.5982ZM176.661 30.669C174.076 30.669 172.242 30.2361 171.166 29.3643C170.089 28.4925 169.554 27.1337 169.554 25.2819V22.871C169.554 20.9891 170.107 19.6484 171.208 18.8487C172.308 18.0431 174.1 17.6462 176.577 17.6462H184.176C185.265 17.6462 186.094 17.7364 186.665 17.9108C187.237 18.0851 187.73 18.2836 188.138 18.506V15.9327C188.138 14.8986 187.826 14.2192 187.201 13.8885C186.575 13.5639 185.511 13.3955 184.014 13.3955H171.268L171.797 8.6157H184.705C186.503 8.6157 187.976 8.80208 189.118 9.16883C190.261 9.53559 191.157 10.0346 191.794 10.6599C192.431 11.2852 192.876 12.0247 193.123 12.8664C193.369 13.7082 193.489 14.61 193.489 15.56V30.675C192.702 30.675 191.938 30.4225 191.205 29.9175C190.471 29.4124 189.99 28.5106 189.774 27.1999C189.449 28.21 188.818 29.0397 187.898 29.689C186.972 30.3443 185.691 30.669 184.056 30.669H176.661ZM188.138 21.6385C187.676 21.4461 187.146 21.2957 186.545 21.1875C185.944 21.0793 185.144 21.0252 184.134 21.0252H177.479C176.607 21.0252 175.981 21.1935 175.603 21.5362C175.224 21.8789 175.032 22.5223 175.032 23.4782C175.032 24.4041 175.224 25.0475 175.603 25.3962C175.981 25.7509 176.595 25.9253 177.442 25.9253H184.098C185.078 25.9253 185.956 25.7629 186.732 25.4322C187.507 25.1076 187.976 24.4823 188.138 23.5564V21.6385ZM205.947 30.669C203.278 30.669 201.203 30.0618 199.718 28.8533C198.233 27.6448 197.494 25.6607 197.494 22.9131V16.3776C197.494 13.63 198.233 11.6459 199.718 10.4314C201.203 9.22294 203.278 8.6157 205.947 8.6157H215.014C215.91 8.6157 216.697 8.73595 217.365 8.98245C218.032 9.22896 218.597 9.52957 219.06 9.87829C219.523 10.233 219.89 10.6178 220.16 11.0447C220.431 11.4655 220.635 11.8383 220.774 12.169L217.791 15.2714C217.545 14.7543 217.208 14.3034 216.769 13.9246C216.336 13.5458 215.651 13.3534 214.725 13.3534H205.941C204.985 13.3534 204.246 13.5999 203.716 14.0869C203.187 14.5799 202.923 15.3375 202.923 16.3716V22.907C202.923 23.9412 203.187 24.7047 203.716 25.1917C204.246 25.6848 204.991 25.9253 205.941 25.9253H214.93C215.855 25.9253 216.541 25.7329 216.992 25.3541C217.443 24.9753 217.773 24.5364 217.99 24.0494L221.014 27.1157C220.876 27.4404 220.665 27.8191 220.383 28.24C220.094 28.6609 219.721 29.0517 219.258 29.4064C218.795 29.7611 218.23 30.0617 217.563 30.3022C216.896 30.5487 216.114 30.669 215.212 30.669H205.947V30.669ZM232.624 30.669C229.954 30.669 227.88 30.0618 226.395 28.8533C224.91 27.6448 224.17 25.6607 224.17 22.9131V16.3776C224.17 13.63 224.91 11.6459 226.395 10.4314C227.88 9.22294 229.954 8.6157 232.624 8.6157H239.935C242.604 8.6157 244.685 9.22294 246.182 10.4314C247.679 11.6459 248.43 13.624 248.43 16.3776V21.5663H229.6V22.9131C229.6 24.0554 229.864 24.849 230.393 25.2819C230.922 25.7148 231.668 25.9373 232.618 25.9373H247.973L247.282 30.675H232.624V30.669ZM242.953 16.6602C242.953 15.4638 242.719 14.61 242.262 14.105C241.799 13.5999 241.023 13.3474 239.935 13.3474H232.624C231.536 13.3474 230.76 13.5939 230.297 14.0809C229.834 14.5739 229.606 15.3315 229.606 16.3656V18.1212H242.965V16.6602H242.953ZM29.695 17.5982C28.8533 16.7805 26.0034 16.2935 24.7769 16.1251C27.254 15.7163 30.3083 14.1771 30.3083 11.5076V9.75203C30.3083 8.36318 30.17 7.20881 29.8994 6.2829C29.6289 5.357 29.1779 4.6235 28.5527 4.07637C27.9274 3.52925 27.1097 3.14446 26.0996 2.90998C25.0895 2.68151 23.851 2.56126 22.384 2.56126H0V28.2641H0.00601363C3.20458 13.3053 17.7845 8.84416 17.7845 8.84416L17.2013 7.07052H25.0956L19.943 14.3274C19.943 14.3274 19.943 14.3274 18.7766 12.0006C7.30501 16.9849 6.64365 27.7891 6.64365 27.7891C6.6196 28.8112 6.65567 29.7551 6.74586 30.657H22.378C23.875 30.657 25.1677 30.5427 26.2559 30.3083C27.3442 30.0798 28.234 29.677 28.9314 29.1058C29.6289 28.5346 30.1339 27.765 30.4646 26.797C30.7892 25.8291 30.9576 24.6266 30.9576 23.1836V21.3438C30.9636 19.6664 30.5367 18.4158 29.695 17.5982Z" fill="url(#paint0_linear_118_114)"/>
<defs>
<linearGradient id="paint0_linear_118_114" x1="124.215" y1="24.7388" x2="124.215" y2="1.15155" gradientUnits="userSpaceOnUse">
<stop stop-color="#EF5652"/>
<stop offset="0.8929" stop-color="#FAA819"/>
</linearGradient>
</defs>
</svg>
